<?xml version="1.0" encoding="utf-8"?>
<!-- Generator: Adobe Illustrator 16.0.2, SVG Export Plug-In . SVG Version: 6.00 Build 0)  -->
<!DOCTYPE svg PUBLIC "-//W3C//DTD SVG 1.1//EN" "http://www.w3.org/Graphics/SVG/1.1/DTD/svg11.dtd">
<svg version="1.1" id="Layer_1" xmlns="http://www.w3.org/2000/svg" xmlns:xlink="http://www.w3.org/1999/xlink" x="0px" y="0px"
	 width="130px" height="70px" viewBox="0 0 130 70" enable-background="new 0 0 130 70" xml:space="preserve">
<g>
	<polygon fill="#FEBE10" points="27.648,7.425 43.269,12.313 43.269,36.115 27.648,30.696 	"/>
	<polygon fill="#FEBE10" points="31.368,4.344 45.926,9.657 59.208,4.344 44.756,0.625 	"/>
	<polygon fill="#FEBE10" points="47.308,12.313 47.308,35.266 62.928,29.74 62.928,7.425 	"/>
	<polygon fill="#FEBE10" points="67.071,7.425 82.69,12.313 82.69,36.115 67.071,30.696 	"/>
	<polygon fill="#FEBE10" points="70.79,4.344 85.348,9.657 98.633,4.344 84.18,0.625 	"/>
	<polygon fill="#FEBE10" points="86.729,12.313 86.729,35.266 102.352,29.74 102.352,7.425 	"/>
	<polygon fill="#FEBE10" points="47.308,40.686 62.928,45.574 62.928,69.375 47.308,63.957 	"/>
	<polygon fill="#FEBE10" points="51.025,37.604 65.583,42.916 78.866,37.604 64.416,33.885 	"/>
	<polygon fill="#FEBE10" points="66.966,45.574 66.966,68.527 82.585,63 82.585,40.686 	"/>
</g>
</svg>
