<?xml version="1.0" encoding="utf-8"?>
<!-- Generator: Adobe Illustrator 16.0.2, SVG Export Plug-In . SVG Version: 6.00 Build 0)  -->
<!DOCTYPE svg PUBLIC "-//W3C//DTD SVG 1.1//EN" "http://www.w3.org/Graphics/SVG/1.1/DTD/svg11.dtd">
<svg version="1.1" id="Layer_1" xmlns="http://www.w3.org/2000/svg" xmlns:xlink="http://www.w3.org/1999/xlink" x="0px" y="0px"
	 width="130px" height="70px" viewBox="0 0 130 70" enable-background="new 0 0 130 70" xml:space="preserve">
<g>
	<path fill-rule="evenodd" clip-rule="evenodd" fill="#435464" d="M86.076,39.431c-2.046,9.995-11.36,17.861-22.684,16.953
		c-11.357-0.91-20.121-10.577-19.665-22.188c0.438-11.182,9.254-19.87,19.998-20.527c12.061-0.737,20.669,8.053,22.336,17.006
		c-0.153,0.011-0.301,0.03-0.449,0.03c-1.675,0.001-3.351-0.008-5.024,0.008c-0.349,0.003-0.492-0.109-0.614-0.453
		c-2.15-5.985-6.342-9.672-12.629-10.649c-8.354-1.298-16.212,4.513-17.611,12.815c-1.41,8.375,4.165,16.361,12.532,17.957
		c7.636,1.456,15.255-3.073,17.697-10.531c0.109-0.339,0.244-0.458,0.601-0.454c1.691,0.018,3.382,0.007,5.072,0.01
		C85.773,39.408,85.909,39.422,86.076,39.431z"/>
	<path fill-rule="evenodd" clip-rule="evenodd" fill="#F28B20" d="M40.821,59.524c1.353-1.35,2.677-2.67,4.028-4.018
		c0.58,0.512,1.18,1.067,1.805,1.592c4.052,3.383,8.675,5.518,13.892,6.369c1.997,0.325,4.005,0.455,6.017,0.342
		c5.592-0.314,10.717-2.04,15.264-5.333c6.313-4.572,10.184-10.718,11.662-18.37c0.127-0.657,0.124-0.657,0.781-0.657
		c1.535,0,3.071,0.006,4.604-0.005c0.364-0.003,0.51,0.036,0.443,0.488c-1.139,7.719-4.489,14.321-10.042,19.776
		c-5.098,5.006-11.196,8.131-18.247,9.336c-1.473,0.251-2.974,0.383-4.468,0.462c-5.895,0.315-11.477-0.927-16.759-3.52
		c-3.281-1.61-6.22-3.717-8.826-6.284C40.921,59.648,40.875,59.587,40.821,59.524z"/>
	<path fill-rule="evenodd" clip-rule="evenodd" fill="#F28B20" d="M85.762,7.278c-1.187,1.588-2.313,3.095-3.445,4.61
		C74.61,6.513,66.248,4.792,57.221,7.379c-9.038,2.591-15.219,8.501-18.948,17.133c-1.742-0.678-3.495-1.359-5.353-2.081
		C37.224,12.349,44.377,5.347,54.832,2.106C65.905-1.325,76.217,0.636,85.762,7.278z"/>
	<path fill-rule="evenodd" clip-rule="evenodd" fill="#435464" d="M92.739,39.454c-2.142,14.245-15.022,23.837-27.568,23.523
		c0-1.912,0-3.825,0-5.688c1.192-0.123,2.351-0.192,3.495-0.372c4.374-0.688,8.192-2.565,11.445-5.555
		c3.429-3.15,5.652-7.015,6.674-11.563c0.053-0.227,0.096-0.4,0.397-0.397c1.798,0.011,3.596,0.007,5.395,0.011
		C92.622,39.413,92.665,39.435,92.739,39.454z"/>
	<path fill-rule="evenodd" clip-rule="evenodd" fill="#435464" d="M44.399,26.95c-1.745-0.679-3.514-1.366-5.351-2.082
		c1.802-4.546,4.556-8.37,8.316-11.447c5.122-4.193,11.018-6.285,17.679-6.387c0,1.945,0,3.855,0,5.747
		C55.303,13.309,48.46,18.048,44.399,26.95z"/>
	<path fill-rule="evenodd" clip-rule="evenodd" fill="#F28B20" d="M54.618,60.959c-0.877-0.424-1.79-0.809-2.65-1.287
		c-7.191-3.984-11.868-9.947-13.962-17.903c-0.521-1.978-0.799-4.003-0.796-6.058c0-0.632-0.007-0.632,0.645-0.632
		c1.503,0,3.008,0.011,4.511-0.008c0.387-0.003,0.532,0.086,0.547,0.513c0.242,6.407,2.74,11.774,7.495,16.077
		c1.786,1.615,3.806,2.872,6.018,3.82c0.212,0.092,0.394,0.155,0.267,0.467c-0.655,1.604-1.295,3.217-1.942,4.826
		C54.733,60.817,54.697,60.851,54.618,60.959z"/>
	<path fill-rule="evenodd" clip-rule="evenodd" fill="#F28B20" d="M73.271,14.299c0.677-1.739,1.354-3.478,2.062-5.294
		c0.807,0.365,1.582,0.675,2.319,1.054c5.76,2.967,10.055,7.367,12.827,13.23c1.033,2.18,1.734,4.468,2.171,6.839
		c0.07,0.373-0.024,0.506-0.412,0.501c-1.626-0.011-3.254-0.011-4.882,0.001c-0.32,0.003-0.466-0.11-0.543-0.422
		c-1.805-7.415-6.229-12.63-13.199-15.704c-0.085-0.037-0.171-0.075-0.254-0.114C73.347,14.386,73.339,14.37,73.271,14.299z"/>
	<path fill-rule="evenodd" clip-rule="evenodd" fill="#F28B20" d="M51.567,40.928c-0.529-1.227-0.876-2.422-1.058-3.67
		c-0.585-4.012,0.292-7.684,2.685-10.939c2.508-3.412,5.898-5.413,10.12-5.951c0.442-0.058,0.893-0.063,1.34-0.095
		c0.268-0.02,0.396,0.081,0.395,0.371c-0.007,1.768-0.007,3.535,0,5.304c0.001,0.274-0.095,0.375-0.375,0.393
		c-4.211,0.289-7.488,3.241-8.167,7.358c-0.239,1.45-0.077,2.87,0.409,4.254c0.056,0.159,0.109,0.318,0.185,0.539
		C55.264,39.302,53.443,40.103,51.567,40.928z"/>
	<path fill-rule="evenodd" clip-rule="evenodd" fill="#435464" d="M89.543,19.822c1.636-1.022,3.26-2.037,4.935-3.083
		c2.661,4.282,4.304,8.893,4.956,13.914c-0.178,0.021-0.31,0.051-0.438,0.051c-1.675,0.003-3.351-0.001-5.022,0.004
		c-0.261,0.001-0.432-0.036-0.483-0.352c-0.591-3.68-1.888-7.102-3.821-10.284C89.629,20.009,89.6,19.938,89.543,19.822z"/>
	<path fill-rule="evenodd" clip-rule="evenodd" fill="#435464" d="M30.567,35.072c1.972,0,3.858,0,5.807,0
		c0.017,4,0.834,7.83,2.427,11.522c-1.799,0.791-3.549,1.561-5.341,2.349C31.547,44.496,30.549,39.919,30.567,35.072z"/>
	<path fill-rule="evenodd" clip-rule="evenodd" fill="#435464" d="M79.335,30.667c-0.201,0.017-0.323,0.039-0.441,0.039
		c-1.953,0.001-3.907,0.006-5.86-0.008c-0.174-0.001-0.428-0.078-0.51-0.206c-1.025-1.601-2.413-2.768-4.229-3.528
		c0.74-1.908,1.477-3.803,2.237-5.767C74.896,23.033,77.798,26.157,79.335,30.667z"/>
	<path fill-rule="evenodd" clip-rule="evenodd" fill="#F28B20" d="M79.206,39.484c-0.032,0.135-0.052,0.253-0.091,0.363
		c-1.462,4.062-4.168,6.974-8.093,8.765c-0.345,0.156-0.507,0.123-0.649-0.255c-0.608-1.623-1.25-3.234-1.877-4.854
		c-0.039-0.099-0.063-0.204-0.104-0.34c0.126-0.07,0.237-0.146,0.359-0.202c1.515-0.701,2.725-1.755,3.671-3.129
		c0.118-0.177,0.372-0.364,0.566-0.366c2.001-0.028,4-0.018,6.001-0.016C79.049,39.451,79.108,39.469,79.206,39.484z"/>
	<path fill-rule="evenodd" clip-rule="evenodd" fill="#435464" d="M65.06,43.719c0,2.086,0,4.108,0,6.171
		c-4.043-0.092-7.488-1.513-10.335-4.265c1.462-1.462,2.901-2.9,4.363-4.362C60.697,42.803,62.702,43.652,65.06,43.719z"/>
</g>
</svg>
