<?xml version="1.0" encoding="utf-8"?>
<!-- Generator: Adobe Illustrator 16.0.2, SVG Export Plug-In . SVG Version: 6.00 Build 0)  -->
<!DOCTYPE svg PUBLIC "-//W3C//DTD SVG 1.1//EN" "http://www.w3.org/Graphics/SVG/1.1/DTD/svg11.dtd">
<svg version="1.1" id="Layer_1" xmlns="http://www.w3.org/2000/svg" xmlns:xlink="http://www.w3.org/1999/xlink" x="0px" y="0px"
	 width="130px" height="70px" viewBox="0 0 130 70" enable-background="new 0 0 130 70" xml:space="preserve">
<g>
	<path fill="#22B8EB" d="M123.432,26.727c-0.059,0.045-0.143,0.078-0.17,0.137c-2.645,5.492-7.244,7.819-13.104,7.962
		c-1.977,0.049-3.195,0.717-3.811,2.697c-0.434,1.397-1.262,2.671-2.018,4.208c4.303,0.319,8.193-0.233,11.584-3.272
		c0.123,1.801,1.088,2.736,2.518,3.247c1.316,0.473,2.646,0.903,3.975,1.544c-0.385,0-0.77,0-1.154,0
		c-5.492-0.013-10.984-0.017-16.479-0.048c-0.865-0.006-1.502,0.196-2.006,0.991c-7.51,11.837-18.273,19.072-31.799,22.351
		c-8.622,2.09-17.332,2.729-26.069,0.919c-9.77-2.025-17.264-7.286-21.784-16.322c-1.042-2.084-1.581-4.433-2.22-6.695
		c-0.255-0.904-0.615-1.257-1.552-1.249c-4.192,0.035-8.386,0.017-12.776,0.017c2.487-1.348,6.031-0.915,6.642-4.754
		c1.989,1.877,4.32,2.856,7.102,3.186c0-0.453-0.005-0.813,0.001-1.175c0.033-2.054,0.073-4.108,0.101-6.164
		c0.011-0.786,0.486-0.913,1.145-0.908c2.174,0.019,4.351-0.05,6.522,0.03c1.13,0.042,1.549-0.258,1.511-1.457
		c-0.087-2.706,0.005-5.417-0.051-8.125c-0.019-0.958,0.304-1.272,1.25-1.256c2.708,0.045,5.417-0.012,8.125,0.032
		c0.887,0.014,1.214-0.256,1.197-1.173c-0.048-2.669,0.025-5.341-0.038-8.01c-0.024-1.047,0.293-1.393,1.362-1.385
		c6.065,0.042,12.131,0.021,18.195,0.02c1.52,0,1.565-0.04,1.563-1.521c-0.006-2.555,0.009-5.109-0.052-7.663
		c-0.024-1.002,0.229-1.431,1.339-1.41c3.394,0.066,6.79,0.067,10.186,0c1.1-0.021,1.338,0.379,1.332,1.393
		c-0.039,6.18,0,12.36-0.041,18.54c-0.008,0.963,0.287,1.232,1.227,1.212c2.67-0.057,5.342,0.014,8.012-0.037
		c0.986-0.019,1.352,0.295,1.332,1.31c-0.053,2.784-0.012,5.569-0.023,8.354c-0.002,0.623,0.02,1.142,0.861,1.155
		c4.703,0.068,9.389,0.07,13.77-2.056c1.408-0.684,1.428-0.64,0.699-2.026c-2.473-4.713-2.271-9.481-0.113-14.2
		c1.402-3.065,2.166-3.15,4.625-0.872c2.684,2.487,4.777,5.333,5.465,9.029c0.035,0.18,0.127,0.35,0.223,0.604
		c0.838-0.133,1.646-0.274,2.461-0.388c3.805-0.536,7.352,0.17,10.619,2.216c0.09,0.057,0.211,0.065,0.316,0.096
		C123.432,26.116,123.432,26.421,123.432,26.727z M101.158,43.301c-0.52-0.048-0.742-0.087-0.967-0.087
		c-3.699-0.004-7.398-0.002-11.096-0.002c-16.439,0-32.876-0.004-49.315,0c-5.3,0.002-10.601,0.026-15.902,0.021
		c-1.331-0.002-1.423,0.048-1.146,1.313c0.743,3.388,2.067,6.535,4.099,9.35c0.303,0.421,0.97,0.822,1.469,0.822
		c3.92,0,7.847,0.017,11.757-0.219c1.991-0.121,3.945-0.785,5.932-1.125c0.382-0.063,1.041,0.122,1.201,0.404
		c0.342,0.598-0.13,0.964-0.711,1.14c-0.473,0.144-0.94,0.311-1.419,0.431c-4.744,1.19-9.578,1.275-14.428,1.158
		c-0.58-0.013-1.16-0.002-1.851-0.002c0.152,0.264,0.188,0.375,0.262,0.446c5.101,5.026,11.169,8.138,18.273,9.152
		c7.178,1.021,14.312,0.531,21.367-0.942c13.106-2.736,23.837-9.224,31.532-20.368C100.51,44.368,100.768,43.921,101.158,43.301z
		 M74.314,39.043c1.559,0.688,2.918,1.431,4.365,1.898c3.793,1.226,7.725,1.385,11.654,1.065c2.381-0.196,4.773-0.582,6.713-2.249
		c0.182-0.154,0.691-0.03,1.002,0.087c1.063,0.404,2.107,0.857,3.154,1.303c0.84,0.358,1.348,0.065,1.713-0.742
		c0.939-2.079,1.957-4.125,2.867-6.217c0.373-0.857,0.811-1.183,1.803-1.133c1.51,0.077,3.051,0.007,4.547-0.214
		c3.447-0.51,6.387-1.98,8.416-4.944c0.721-1.05,0.656-1.276-0.51-1.738c-3.525-1.395-7.057-1.384-10.59-0.025
		c-0.365,0.14-0.734,0.262-1.234,0.44c0.139-4.7-1.965-8.128-5.195-11.04c-0.783-0.707-1.113-0.543-1.596,0.297
		c-2.369,4.129-1.984,11.551,1.506,14.641c0.129,0.114,0.182,0.312,0.287,0.496c-0.182,0.148-0.32,0.274-0.473,0.381
		c-4.129,2.889-8.797,3.884-13.738,3.884c-20.367,0.006-40.733,0.002-61.101,0.002c-1.599,0-3.199,0.012-4.798-0.004
		c-0.655-0.008-1.001,0.225-0.987,0.927c0.029,1.521,0.042,3.044,0.042,4.564c0,0.816,0.34,1.142,1.187,1.088
		c2.646-0.165,5.235-0.546,7.563-1.914c0.574-0.338,0.929-0.324,1.507,0.069c0.864,0.588,1.836,1.107,2.837,1.388
		c3.775,1.055,7.63,0.971,11.458,0.392c2.539-0.384,5.164-0.664,7.195-2.568c0.573-0.537,1.12-0.156,1.639,0.213
		c0.648,0.459,1.259,1.042,1.982,1.314C63.491,42.952,69.213,42.804,74.314,39.043z M31.397,29.004c0,1.219,0.022,2.44-0.009,3.658
		c-0.018,0.683,0.232,0.951,0.932,0.943c2.401-0.026,4.802-0.022,7.204,0.007c0.672,0.008,0.995-0.225,0.993-0.913
		c-0.008-2.478-0.008-4.955,0-7.432c0.001-0.623-0.267-0.88-0.901-0.875c-2.438,0.019-4.878,0.023-7.317-0.002
		c-0.704-0.007-0.934,0.273-0.912,0.954C31.424,26.563,31.397,27.784,31.397,29.004z M67.633,23.063c1.18,0,2.36-0.024,3.539,0.009
		c0.707,0.02,1.084-0.237,1.082-0.97c-0.002-2.434,0-4.867,0-7.3c0-0.652-0.285-0.949-0.976-0.942
		c-2.437,0.025-4.874,0.029-7.309-0.001c-0.752-0.009-0.997,0.283-0.989,1.011c0.028,2.398,0.028,4.796,0,7.194
		c-0.009,0.732,0.252,1.033,0.998,1.01C65.196,23.037,66.415,23.063,67.633,23.063z M67.616,3.337c-1.22,0-2.44,0.02-3.66-0.008
		c-0.659-0.015-0.981,0.193-0.974,0.909c0.022,2.44,0.02,4.879,0.001,7.319c-0.005,0.665,0.229,0.985,0.927,0.98
		c2.438-0.016,4.878-0.016,7.316,0c0.667,0.005,0.97-0.238,0.966-0.937c-0.021-2.44-0.029-4.88,0.004-7.319
		c0.012-0.786-0.332-0.976-1.035-0.954C69.98,3.364,68.797,3.337,67.616,3.337z M72.186,28.922c0-1.18-0.031-2.361,0.01-3.54
		c0.029-0.749-0.264-1.001-0.998-0.992c-2.398,0.029-4.797,0.028-7.194,0c-0.726-0.008-1.03,0.231-1.022,0.984
		c0.028,2.436,0.025,4.874,0.002,7.31c-0.007,0.688,0.252,0.943,0.942,0.935c2.436-0.027,4.872-0.027,7.309-0.002
		c0.68,0.007,0.973-0.231,0.957-0.926C72.166,31.436,72.186,30.178,72.186,28.922z M78.025,33.595c1.18,0,2.365-0.054,3.541,0.018
		c0.893,0.055,1.248-0.246,1.234-1.146c-0.029-2.322-0.027-4.646,0-6.969c0.012-0.837-0.309-1.129-1.148-1.113
		c-2.324,0.044-4.648,0.056-6.971-0.004c-0.951-0.025-1.152,0.35-1.139,1.211c0.039,2.322,0.02,4.646-0.023,6.968
		c-0.016,0.805,0.295,1.08,1.078,1.048C75.738,33.56,76.883,33.595,78.025,33.595z M51.046,28.902c0-1.182-0.021-2.365,0.009-3.547
		c0.017-0.662-0.188-0.974-0.909-0.965c-2.441,0.028-4.882,0.026-7.323,0.001c-0.72-0.007-0.91,0.318-0.903,0.976
		c0.021,2.403,0.024,4.806-0.001,7.209c-0.007,0.713,0.209,1.04,0.979,1.029c2.402-0.031,4.805-0.029,7.208,0
		c0.689,0.008,0.965-0.236,0.95-0.927C51.025,31.419,51.046,30.161,51.046,28.902z M41.928,18.37c0,1.221,0.022,2.441-0.008,3.66
		c-0.019,0.7,0.178,1.055,0.962,1.044c2.402-0.032,4.805-0.025,7.207-0.003c0.671,0.006,0.972-0.218,0.965-0.923
		c-0.021-2.478-0.02-4.957-0.001-7.436c0.005-0.657-0.285-0.857-0.902-0.852c-2.44,0.019-4.881,0.023-7.321-0.002
		c-0.712-0.007-0.93,0.294-0.911,0.965C41.952,16.005,41.928,17.188,41.928,18.37z M57.05,24.402c-1.256,0-2.516-0.049-3.766,0.036
		c-0.29,0.02-0.78,0.488-0.787,0.759c-0.061,2.51-0.026,5.023-0.044,7.535c-0.005,0.633,0.233,0.877,0.873,0.873
		c2.436-0.022,4.872-0.026,7.307,0.002c0.683,0.008,0.959-0.227,0.953-0.92c-0.021-2.474-0.02-4.949-0.001-7.422
		c0.004-0.637-0.246-0.885-0.882-0.87C59.486,24.421,58.267,24.401,57.05,24.402z M61.583,18.407c0.002,0,0.003,0,0.006,0
		c0-1.181-0.036-2.363,0.012-3.542c0.032-0.754-0.259-1.013-0.993-1.006c-2.399,0.025-4.798,0.03-7.197-0.001
		c-0.781-0.011-0.968,0.339-0.961,1.041c0.026,2.36,0.039,4.723-0.005,7.083c-0.016,0.886,0.369,1.104,1.17,1.093
		c2.283-0.032,4.568-0.031,6.853,0c0.822,0.011,1.178-0.251,1.13-1.127C61.534,20.771,61.583,19.587,61.583,18.407z"/>
	<path fill="#22B8EB" d="M50.484,48.361c1.488,0.007,2.654,1.169,2.61,2.603c-0.043,1.401-1.186,2.526-2.583,2.545
		c-1.418,0.019-2.626-1.207-2.592-2.631C47.954,49.436,49.052,48.359,50.484,48.361z M52.215,50.476
		c-1.313,0.402-1.465-0.39-1.427-1.3c-1.374,0.063-2.109,0.726-2.072,1.797c0.034,0.958,0.815,1.721,1.768,1.729
		C51.564,52.71,52.21,51.947,52.215,50.476z"/>
	<path fill="#22B8EB" d="M36.464,32.645c0-2.429,0-4.857,0-7.465C37.133,25.999,37.201,31.702,36.464,32.645z"/>
	<path fill="#22B8EB" d="M38.234,25.358c0,2.43,0,4.86,0,7.464C37.575,32.042,37.493,26.349,38.234,25.358z"/>
	<path fill="#22B8EB" d="M39.233,32.645c0-2.429,0-4.857,0-7.524C39.893,26.067,39.916,31.801,39.233,32.645z"/>
	<path fill="#22B8EB" d="M34.088,25.105c0,2.685,0,5.091,0,7.791c-0.3-0.344-0.527-0.485-0.565-0.667
		C33.227,30.84,33.511,25.822,34.088,25.105z"/>
	<path fill="#22B8EB" d="M32.715,25.234c0,2.575,0,4.981,0,7.452C31.918,32.134,31.87,26.027,32.715,25.234z"/>
	<path fill="#22B8EB" d="M35.389,32.65c-0.716-1.168-0.615-6.648,0-7.474C35.389,27.792,35.389,30.221,35.389,32.65z"/>
	<path fill="#22B8EB" d="M65.478,14.305c0.256,0.485,0.461,0.696,0.463,0.909c0.026,2.134,0.028,4.269,0.002,6.402
		c-0.002,0.203-0.248,0.402-0.381,0.604c-0.157-0.209-0.448-0.417-0.451-0.628c-0.033-2.134-0.024-4.269-0.005-6.402
		C65.108,14.993,65.264,14.799,65.478,14.305z"/>
	<path fill="#22B8EB" d="M67,14.553c0.112,0.23,0.319,0.459,0.322,0.692c0.025,2.127,0.025,4.255,0,6.382
		c-0.002,0.199-0.238,0.395-0.365,0.593c-0.137-0.145-0.391-0.288-0.393-0.434c-0.025-2.372-0.018-4.745-0.018-7.118
		C66.697,14.629,66.849,14.591,67,14.553z"/>
	<path fill="#22B8EB" d="M68.713,18.586c0,0.988,0.026,1.977-0.018,2.962c-0.011,0.229-0.256,0.448-0.393,0.671
		c-0.13-0.23-0.368-0.458-0.372-0.689c-0.028-2.052-0.028-4.104-0.003-6.155c0.005-0.248,0.219-0.493,0.334-0.738
		c0.15,0.252,0.42,0.499,0.432,0.758C68.742,16.456,68.713,17.521,68.713,18.586z"/>
	<path fill="#22B8EB" d="M69.869,14.582c0.072,0.253,0.207,0.506,0.209,0.76c0.018,2.052,0.021,4.105-0.006,6.158
		c-0.004,0.242-0.221,0.481-0.339,0.722c-0.147-0.215-0.423-0.428-0.427-0.645c-0.029-2.128-0.021-4.257-0.003-6.386
		c0.003-0.196,0.146-0.39,0.225-0.585C69.643,14.599,69.756,14.591,69.869,14.582z"/>
	<path fill="#22B8EB" d="M70.886,22.079c0-2.474,0-4.949,0-7.422c0.114,0.001,0.229,0.002,0.343,0.003c0,2.482,0,4.964,0,7.447
		C71.114,22.098,71,22.089,70.886,22.079z"/>
	<path fill="#22B8EB" d="M63.927,22.105c0-2.479,0-4.957,0-7.435c0.108,0,0.216-0.001,0.324-0.001c0,2.479,0,4.957,0,7.436
		C64.143,22.104,64.035,22.104,63.927,22.105z"/>
	<path fill="#22B8EB" d="M65.09,7.859c0-1.028-0.025-2.058,0.02-3.085c0.01-0.23,0.266-0.451,0.407-0.676
		c0.138,0.233,0.39,0.464,0.392,0.698c0.033,2.094,0.029,4.19,0.003,6.285c-0.003,0.203-0.233,0.404-0.358,0.606
		c-0.154-0.209-0.432-0.414-0.441-0.629C65.065,9.994,65.09,8.926,65.09,7.859z"/>
	<path fill="#22B8EB" d="M67.025,4.026c0.104,0.333,0.295,0.663,0.301,0.997c0.028,1.935,0.033,3.87-0.008,5.804
		c-0.006,0.289-0.295,0.572-0.453,0.858c-0.108-0.287-0.309-0.573-0.313-0.862c-0.027-1.972-0.02-3.945-0.008-5.918
		c0.002-0.276,0.094-0.554,0.143-0.83C66.801,4.06,66.914,4.042,67.025,4.026z"/>
	<path fill="#22B8EB" d="M68.432,4.032c0.094,0.243,0.266,0.485,0.27,0.728c0.021,2.089,0.025,4.179-0.008,6.267
		c-0.002,0.222-0.268,0.439-0.41,0.659c-0.122-0.2-0.35-0.4-0.352-0.602c-0.019-2.202-0.006-4.405,0.012-6.607
		c0.002-0.13,0.113-0.259,0.175-0.388C68.223,4.069,68.327,4.051,68.432,4.032z"/>
	<path fill="#22B8EB" d="M69.674,3.743c0.226,0.512,0.396,0.721,0.398,0.932c0.021,2.127,0.023,4.255,0,6.382
		c-0.002,0.21-0.205,0.417-0.316,0.625c-0.155-0.208-0.443-0.414-0.447-0.625c-0.028-2.164-0.018-4.33,0-6.495
		C69.311,4.4,69.447,4.239,69.674,3.743z"/>
	<path fill="#22B8EB" d="M64.31,11.836c-0.794-1.069-0.779-6.896,0-7.917C64.31,6.616,64.31,9.092,64.31,11.836z"/>
	<path fill="#22B8EB" d="M70.854,11.567c0-2.479,0-4.958,0-7.566C71.584,4.8,71.643,10.504,70.854,11.567z"/>
	<path fill="#22B8EB" d="M65.928,28.951c0,1.063,0.026,2.125-0.021,3.186c-0.01,0.211-0.296,0.411-0.455,0.616
		c-0.121-0.204-0.343-0.407-0.345-0.611c-0.026-2.085-0.029-4.172,0.002-6.257c0.003-0.23,0.259-0.456,0.396-0.684
		c0.142,0.227,0.394,0.448,0.403,0.68C65.953,26.902,65.928,27.928,65.928,28.951z"/>
	<path fill="#22B8EB" d="M67.076,25.152c0.088,0.32,0.248,0.64,0.252,0.961c0.024,1.939,0.027,3.88-0.004,5.818
		c-0.006,0.275-0.242,0.546-0.371,0.819c-0.139-0.26-0.391-0.519-0.396-0.781c-0.033-2.015-0.022-4.031-0.01-6.047
		c0.003-0.243,0.105-0.485,0.162-0.728C66.831,25.18,66.953,25.167,67.076,25.152z"/>
	<path fill="#22B8EB" d="M68.449,25.146c0.088,0.314,0.249,0.627,0.254,0.942c0.023,1.941,0.025,3.883-0.006,5.825
		c-0.004,0.281-0.229,0.559-0.352,0.839c-0.145-0.254-0.409-0.506-0.414-0.763c-0.033-2.018-0.023-4.035-0.012-6.053
		c0.002-0.244,0.102-0.487,0.156-0.731C68.199,25.185,68.324,25.166,68.449,25.146z"/>
	<path fill="#22B8EB" d="M64.373,25.176c0.061,0.3,0.172,0.599,0.174,0.899c0.017,1.937,0.022,3.875-0.006,5.811
		c-0.005,0.289-0.213,0.575-0.328,0.862c-0.166-0.283-0.469-0.563-0.475-0.851c-0.043-1.897-0.034-3.798-0.011-5.696
		c0.004-0.343,0.146-0.684,0.224-1.025C64.091,25.177,64.231,25.176,64.373,25.176z"/>
	<path fill="#22B8EB" d="M69.924,25.176c0.055,0.303,0.154,0.606,0.157,0.911c0.015,1.938,0.021,3.878-0.009,5.817
		c-0.004,0.284-0.212,0.565-0.326,0.848c-0.152-0.286-0.434-0.57-0.439-0.859c-0.039-1.939-0.028-3.878-0.012-5.817
		c0.003-0.301,0.123-0.603,0.19-0.902C69.631,25.174,69.777,25.175,69.924,25.176z"/>
	<path fill="#22B8EB" d="M71.219,25.37c0,2.429,0,4.858,0,7.288c-0.104,0.001-0.211,0.002-0.318,0.004c0-2.43,0-4.858,0-7.288
		C71.008,25.373,71.114,25.372,71.219,25.37z"/>
	<path fill="#22B8EB" d="M75.654,28.951c0-1.027-0.023-2.057,0.018-3.083c0.01-0.229,0.256-0.447,0.393-0.67
		c0.145,0.225,0.41,0.448,0.414,0.675c0.031,2.097,0.031,4.194-0.004,6.291c-0.002,0.199-0.309,0.395-0.475,0.592
		c-0.117-0.202-0.33-0.402-0.336-0.607c-0.035-1.065-0.016-2.131-0.016-3.198C75.65,28.951,75.652,28.951,75.654,28.951z"/>
	<path fill="#22B8EB" d="M77.424,25.039c0.186,0.283,0.42,0.474,0.424,0.667c0.027,2.172,0.029,4.346,0.002,6.518
		c-0.004,0.184-0.273,0.365-0.42,0.546c-0.117-0.166-0.338-0.33-0.338-0.496c-0.018-2.249-0.006-4.497,0.014-6.746
		C77.107,25.41,77.254,25.292,77.424,25.039z"/>
	<path fill="#22B8EB" d="M78.992,25.148c0.086,0.314,0.238,0.629,0.242,0.945c0.023,1.945,0.025,3.891-0.006,5.835
		c-0.004,0.283-0.229,0.562-0.35,0.842c-0.145-0.259-0.41-0.516-0.416-0.777c-0.031-2.059-0.021-4.119-0.008-6.178
		c0.002-0.206,0.115-0.411,0.178-0.617C78.752,25.182,78.873,25.166,78.992,25.148z"/>
	<path fill="#22B8EB" d="M75,25.26c0.041,0.281,0.117,0.562,0.119,0.844c0.01,1.9,0.023,3.801-0.012,5.701
		c-0.006,0.315-0.242,0.625-0.371,0.938c-0.162-0.292-0.459-0.582-0.467-0.877c-0.043-1.899-0.039-3.801-0.006-5.7
		c0.006-0.343,0.215-0.684,0.332-1.024C74.73,25.18,74.867,25.22,75,25.26z"/>
	<path fill="#22B8EB" d="M80.451,25.169c0.064,0.303,0.184,0.607,0.188,0.911c0.016,1.941,0.027,3.883-0.014,5.823
		c-0.006,0.285-0.301,0.563-0.463,0.845c-0.113-0.286-0.324-0.571-0.328-0.858c-0.029-1.941-0.025-3.883-0.008-5.824
		c0.002-0.299,0.121-0.597,0.186-0.896C80.158,25.17,80.305,25.17,80.451,25.169z"/>
	<path fill="#22B8EB" d="M81.723,25.148c0.104,0.301,0.289,0.602,0.293,0.904c0.027,1.972,0.031,3.943-0.004,5.915
		c-0.006,0.262-0.268,0.519-0.41,0.778c-0.111-0.241-0.316-0.48-0.318-0.722c-0.023-2.123-0.012-4.247-0.004-6.371
		c0.002-0.143,0.074-0.285,0.113-0.427C81.502,25.2,81.613,25.175,81.723,25.148z"/>
	<path fill="#22B8EB" d="M43.22,25.147c0.09,0.253,0.255,0.505,0.258,0.759c0.022,2.047,0.026,4.095-0.004,6.142
		c-0.003,0.237-0.248,0.469-0.38,0.704c-0.147-0.211-0.418-0.421-0.421-0.634c-0.03-2.123-0.023-4.246-0.005-6.369
		c0.001-0.194,0.149-0.386,0.229-0.579C43.004,25.162,43.112,25.154,43.22,25.147z"/>
	<path fill="#22B8EB" d="M44.027,28.92c0-1.025-0.026-2.049,0.021-3.072c0.01-0.222,0.28-0.432,0.43-0.648
		c0.129,0.203,0.365,0.405,0.367,0.609c0.029,2.125,0.029,4.249,0.001,6.373c-0.002,0.191-0.253,0.38-0.388,0.57
		c-0.144-0.215-0.402-0.426-0.411-0.647C44.002,31.045,44.027,29.982,44.027,28.92z"/>
	<path fill="#22B8EB" d="M46.995,32.914c0-2.696,0-5.128,0-7.729C47.703,26.015,47.725,31.869,46.995,32.914z"/>
	<path fill="#22B8EB" d="M48.386,32.664c0-2.436,0-4.872,0-7.47C49.008,25.928,49.114,31.51,48.386,32.664z"/>
	<path fill="#22B8EB" d="M49.767,32.655c0-2.434,0-4.868,0-7.301c0.159,0,0.316-0.001,0.475-0.001
		c0.072,2.433,0.083,4.867-0.017,7.302C50.071,32.655,49.919,32.655,49.767,32.655z"/>
	<path fill="#22B8EB" d="M46.036,25.05c0,2.738,0,5.164,0,7.59c-0.083,0.031-0.164,0.061-0.246,0.093
		c-0.126-0.174-0.333-0.333-0.368-0.523C45.132,30.593,45.406,25.837,46.036,25.05z"/>
	<path fill="#22B8EB" d="M43.239,14.585c0.085,0.326,0.238,0.65,0.243,0.977c0.022,1.941,0.027,3.883-0.006,5.824
		c-0.004,0.28-0.239,0.557-0.368,0.834c-0.151-0.284-0.429-0.566-0.434-0.853c-0.039-1.941-0.027-3.883-0.013-5.824
		c0.002-0.312,0.095-0.622,0.146-0.934C42.95,14.602,43.094,14.593,43.239,14.585z"/>
	<path fill="#22B8EB" d="M44.866,18.494c0,0.991,0.031,1.985-0.022,2.973c-0.013,0.259-0.284,0.504-0.437,0.755
		c-0.127-0.233-0.36-0.466-0.364-0.701c-0.028-2.059-0.028-4.119,0.001-6.177c0.003-0.239,0.243-0.476,0.373-0.714
		c0.149,0.259,0.414,0.511,0.427,0.776C44.895,16.433,44.865,17.464,44.866,18.494z"/>
	<path fill="#22B8EB" d="M48.382,22.115c0-2.48,0-4.961,0-7.662C49.01,15.327,49.096,21.06,48.382,22.115z"/>
	<path fill="#22B8EB" d="M47.397,14.673c0,2.479,0,4.958,0,7.537C46.737,21.598,46.62,15.711,47.397,14.673z"/>
	<path fill="#22B8EB" d="M49.764,22.115c0-2.483,0-4.967,0-7.62C50.373,15.275,50.488,20.931,49.764,22.115z"/>
	<path fill="#22B8EB" d="M46.008,14.447c0,2.709,0,5.187,0,7.812C45.205,21.5,45.182,15.399,46.008,14.447z"/>
	<path fill="#22B8EB" d="M53.184,28.924c0-0.986-0.03-1.974,0.021-2.957c0.014-0.263,0.273-0.513,0.42-0.768
		c0.132,0.238,0.376,0.475,0.379,0.715c0.031,2.047,0.031,4.095,0,6.142c-0.003,0.234-0.252,0.464-0.389,0.696
		c-0.144-0.252-0.4-0.5-0.412-0.758C53.155,30.973,53.184,29.948,53.184,28.924z"/>
	<path fill="#22B8EB" d="M55.433,29.041c0,0.986,0.033,1.975-0.021,2.958c-0.014,0.259-0.299,0.502-0.459,0.753
		c-0.131-0.231-0.373-0.46-0.376-0.693c-0.03-2.049-0.03-4.099,0.001-6.147c0.003-0.239,0.247-0.474,0.379-0.711
		c0.159,0.255,0.441,0.504,0.456,0.768C55.464,26.99,55.432,28.016,55.433,29.041z"/>
	<path fill="#22B8EB" d="M56.387,24.937c0.19,0.481,0.401,0.772,0.405,1.065c0.03,2.01,0.029,4.021,0,6.031
		c-0.004,0.242-0.233,0.48-0.356,0.72c-0.158-0.163-0.449-0.326-0.452-0.49c-0.015-2.237,0.006-4.474,0.034-6.711
		C56.021,25.429,56.161,25.306,56.387,24.937z"/>
	<path fill="#22B8EB" d="M58.182,29.023c0,1.028,0.025,2.058-0.021,3.084c-0.009,0.22-0.273,0.43-0.42,0.644
		c-0.12-0.203-0.34-0.403-0.343-0.607c-0.026-2.094-0.028-4.188,0.003-6.283c0.004-0.221,0.273-0.438,0.418-0.658
		c0.122,0.245,0.337,0.487,0.346,0.736C58.205,26.966,58.182,27.995,58.182,29.023z"/>
	<path fill="#22B8EB" d="M58.756,28.95c0-1.03-0.025-2.061,0.02-3.089c0.01-0.225,0.273-0.438,0.421-0.657
		c0.124,0.206,0.355,0.409,0.358,0.616c0.03,2.098,0.035,4.196,0.005,6.293c-0.003,0.215-0.284,0.426-0.435,0.64
		c-0.124-0.238-0.345-0.472-0.354-0.714C58.731,31.01,58.755,29.979,58.756,28.95z"/>
	<path fill="#22B8EB" d="M60.286,32.644c0-2.428,0-4.855,0-7.486C60.944,26.005,60.998,31.724,60.286,32.644z"/>
	<path fill="#22B8EB" d="M53.743,14.569c0.094,0.318,0.264,0.634,0.269,0.954c0.025,1.943,0.032,3.888-0.008,5.831
		c-0.006,0.292-0.293,0.579-0.449,0.868c-0.123-0.275-0.35-0.548-0.354-0.825c-0.031-1.982-0.022-3.964-0.009-5.947
		c0.002-0.277,0.095-0.555,0.145-0.832C53.472,14.602,53.607,14.585,53.743,14.569z"/>
	<path fill="#22B8EB" d="M54.559,18.421c0-1.027-0.025-2.056,0.019-3.082c0.01-0.242,0.247-0.473,0.381-0.709
		c0.145,0.223,0.415,0.443,0.418,0.667c0.033,2.093,0.033,4.186,0,6.279c-0.003,0.216-0.28,0.427-0.431,0.641
		c-0.13-0.238-0.359-0.472-0.37-0.715C54.534,20.478,54.559,19.449,54.559,18.421z"/>
	<path fill="#22B8EB" d="M56.123,14.563c0.959,0.617,0.959,7.146,0,7.702C56.123,19.676,56.123,17.159,56.123,14.563z"/>
	<path fill="#22B8EB" d="M57.767,14.331c0.194,0.52,0.396,0.814,0.4,1.112c0.029,2.013,0.027,4.028-0.001,6.041
		c-0.003,0.247-0.221,0.49-0.339,0.736c-0.147-0.172-0.42-0.344-0.422-0.518c-0.021-2.241-0.008-4.482,0.011-6.723
		C57.418,14.853,57.545,14.729,57.767,14.331z"/>
	<path fill="#22B8EB" d="M59.556,18.58c0,0.989,0.025,1.979-0.019,2.965c-0.01,0.23-0.255,0.449-0.392,0.673
		c-0.129-0.232-0.37-0.463-0.373-0.698c-0.029-2.052-0.029-4.105-0.001-6.159c0.003-0.246,0.221-0.491,0.338-0.736
		c0.149,0.254,0.414,0.501,0.425,0.762C59.584,16.45,59.556,17.515,59.556,18.58z"/>
	<path fill="#22B8EB" d="M60.32,14.673c0.771,0.914,0.73,6.734-0.03,7.447C60.113,19.639,60.123,17.157,60.32,14.673z"/>
</g>
</svg>
