<?xml version="1.0" encoding="utf-8"?>
<!-- Generator: Adobe Illustrator 16.0.2, SVG Export Plug-In . SVG Version: 6.00 Build 0)  -->
<!DOCTYPE svg PUBLIC "-//W3C//DTD SVG 1.1//EN" "http://www.w3.org/Graphics/SVG/1.1/DTD/svg11.dtd">
<svg version="1.1" id="Layer_1" xmlns="http://www.w3.org/2000/svg" xmlns:xlink="http://www.w3.org/1999/xlink" x="0px" y="0px"
	 width="130px" height="70px" viewBox="0 0 130 70" enable-background="new 0 0 130 70" xml:space="preserve">
<g>
	<path fill="#FFFFFF" d="M99.534,36.635c0-5.807-3.609-10.825-8.966-12.797c0.227-1.241,0.339-2.425,0.339-3.722
		c0-10.769-8.739-19.508-19.507-19.508c-6.259,0-12.123,2.988-15.788,8.119c-1.804-1.41-4.003-2.143-6.314-2.143
		c-5.694,0-10.375,4.623-10.375,10.374c0,1.241,0.226,2.48,0.62,3.608c-5.412,1.86-9.077,7.048-9.077,12.798
		c0,5.807,3.608,10.881,9.021,12.856c-0.226,1.184-0.339,2.424-0.339,3.721c0,10.713,8.739,19.451,19.451,19.451
		c6.315,0,12.123-3.043,15.788-8.119c1.804,1.41,4.06,2.199,6.371,2.199c5.695,0,10.374-4.623,10.374-10.373
		c0-1.24-0.226-2.482-0.62-3.609C95.813,47.572,99.534,42.387,99.534,36.635L99.534,36.635z"/>
	<path fill="#F4BD19" d="M57.474,30.151l15.392,7.048l15.562-13.645c0.226-1.127,0.338-2.254,0.338-3.439
		c0-9.584-7.78-17.365-17.364-17.365c-5.752,0-11.108,2.819-14.322,7.555l-2.593,13.419L57.474,30.151L57.474,30.151z"/>
	<path fill="#3CBEB1" d="M41.517,46.445c-0.225,1.127-0.338,2.313-0.338,3.496c0,9.586,7.837,17.422,17.421,17.422
		c5.808,0,11.164-2.875,14.435-7.611l2.537-13.418l-3.438-6.541l-15.449-7.048L41.517,46.445L41.517,46.445z"/>
	<path fill="#E9478C" d="M41.403,19.777l10.544,2.48l2.368-12.009c-1.466-1.128-3.214-1.691-5.074-1.691
		c-4.567,0-8.345,3.721-8.345,8.344C40.896,17.86,41.065,18.875,41.403,19.777L41.403,19.777z"/>
	<path fill="#2C458F" d="M40.502,22.314c-4.736,1.523-8.007,6.089-8.007,11.051c0,4.85,2.988,9.19,7.5,10.881l14.828-13.418
		l-2.706-5.807L40.502,22.314L40.502,22.314z"/>
	<path fill="#95C63D" d="M75.74,59.695c1.467,1.129,3.215,1.748,5.019,1.748c4.567,0,8.345-3.721,8.345-8.344
		c0-1.016-0.17-1.975-0.508-2.877l-10.544-2.48L75.74,59.695L75.74,59.695z"/>
	<path fill="#176655" d="M77.883,44.98l11.615,2.705c4.735-1.578,8.006-6.088,8.006-11.051c0-4.849-2.988-9.133-7.498-10.881
		L74.783,39.061L77.883,44.98L77.883,44.98z"/>
</g>
</svg>
