<?xml version="1.0" encoding="utf-8"?>
<!-- Generator: Adobe Illustrator 16.0.2, SVG Export Plug-In . SVG Version: 6.00 Build 0)  -->
<!DOCTYPE svg PUBLIC "-//W3C//DTD SVG 1.1//EN" "http://www.w3.org/Graphics/SVG/1.1/DTD/svg11.dtd">
<svg version="1.1" id="Layer_1" xmlns="http://www.w3.org/2000/svg" xmlns:xlink="http://www.w3.org/1999/xlink" x="0px" y="0px"
	 width="130px" height="70px" viewBox="0 0 130 70" enable-background="new 0 0 130 70" xml:space="preserve">
<g>
	<path fill="#009639" d="M20.53,46.425c1.009,1.253,2.66,1.83,4.089,1.83c1.997,0,3.407-1.32,3.407-2.917l0.002-20.678
		c0-1.605-1.312-2.917-2.916-2.917h-0.166c-1.604,0-2.917,1.312-2.917,2.917v14.999L8.589,23.573
		c-1.01-1.252-2.661-1.829-4.09-1.829c-1.996,0-3.407,1.319-3.407,2.916L1.09,45.338c0,1.604,1.312,2.918,2.916,2.918h0.166
		c1.604,0,2.917-1.314,2.917-2.918V30.339L20.53,46.425z"/>
	<path fill="#009639" d="M128.06,43.163L119.896,35l8.164-8.165c1.134-1.134,1.134-2.99,0-4.125l-0.117-0.117
		c-1.135-1.134-2.989-1.134-4.124,0l-7.146,7.144l-0.498,0.498l-0.306,0.307c-0.119,0.119-0.313,0.119-0.431,0l-0.373-0.372
		l-0.432-0.433l-7.144-7.144c-1.135-1.134-2.991-1.134-4.125,0l-0.118,0.117c-1.134,1.135-1.134,2.991,0,4.125L111.413,35
		l-8.166,8.163c-1.134,1.136-1.134,2.991,0,4.126l0.118,0.117c1.134,1.134,2.99,1.134,4.125,0l7.144-7.146l0.492-0.492l0.313-0.313
		c0.118-0.118,0.312-0.118,0.431,0l0.197,0.197l0.606,0.607l7.146,7.146c1.135,1.134,2.989,1.134,4.124,0l0.117-0.119
		C129.194,46.153,129.193,44.299,128.06,43.163"/>
	<path fill="#009639" d="M80.039,46.425c-1.009,1.253-2.659,1.83-4.09,1.83c-1.996,0-3.407-1.32-3.407-2.917L72.54,24.66
		c0-1.605,1.313-2.917,2.916-2.917h0.165c1.604,0,2.918,1.312,2.918,2.917v14.999l13.44-16.086c1.012-1.252,2.66-1.829,4.091-1.829
		c1.997,0,3.406,1.319,3.406,2.916l0.004,20.678c0,1.604-1.313,2.918-2.917,2.918h-0.166c-1.604,0-2.917-1.314-2.917-2.918V30.339
		L80.039,46.425z"/>
	<path fill="#009639" d="M68.534,24.547c0-1.541-1.188-2.804-2.638-2.804c-1.451,0-2.637,1.263-2.637,2.804v6.803
		c0,0.167,0.137,0.303,0.304,0.303h4.665c0.167,0,0.304-0.137,0.304-0.303L68.534,24.547z"/>
	<path fill="#009639" d="M68.531,34.397c0-0.167-0.137-0.303-0.304-0.303h-4.664c-0.167,0-0.304,0.136-0.304,0.303l0,11.138
		c0,1.497,1.187,2.721,2.638,2.721c1.449,0,2.637-1.224,2.637-2.721L68.531,34.397z"/>
	<path fill="#009639" d="M60.878,34.093H44.251c-1.535,0-2.791,1.047-2.791,2.509s1.256,2.504,2.791,2.504h8.368l-2.24,3.811
		c-0.151,0.254-0.327,0.347-0.62,0.345h-8.164c-0.336,0.003-0.485-0.099-0.64-0.38l-4.172-7.627
		c-0.134-0.24-0.143-0.427-0.008-0.674l4.18-7.431c0.149-0.276,0.324-0.382,0.64-0.381h8.181c0.325-0.001,0.522,0.1,0.691,0.38
		l2.507,4.225c0.116,0.189,0.233,0.283,0.479,0.281h5.792l-5.606-9.401c-0.141-0.235-0.313-0.286-0.566-0.286l-14.988-0.002
		c-0.332-0.001-0.506,0.106-0.663,0.397l-6.537,12.058c-0.185,0.337-0.196,0.585-0.004,0.928l6.897,12.416
		c0.16,0.291,0.346,0.388,0.673,0.388h14.334c0.343,0,0.53-0.098,0.697-0.405L60.878,34.093z"/>
</g>
</svg>
