<?xml version="1.0" encoding="utf-8"?>
<!-- Generator: Adobe Illustrator 16.0.2, SVG Export Plug-In . SVG Version: 6.00 Build 0)  -->
<!DOCTYPE svg PUBLIC "-//W3C//DTD SVG 1.1//EN" "http://www.w3.org/Graphics/SVG/1.1/DTD/svg11.dtd">
<svg version="1.1" id="Layer_1" xmlns="http://www.w3.org/2000/svg" xmlns:xlink="http://www.w3.org/1999/xlink" x="0px" y="0px"
	 width="130px" height="70px" viewBox="0 0 130 70" enable-background="new 0 0 130 70" xml:space="preserve">
<g>
	<g>
		<path d="M32.265,24.433h2.286v7.847h0.052c0.364-0.65,0.935-1.222,1.637-1.612c0.675-0.389,1.48-0.649,2.337-0.649
			c1.688,0,4.391,1.039,4.391,5.378v7.482h-2.286v-7.223c0-2.025-0.754-3.741-2.91-3.741c-1.48,0-2.649,1.04-3.065,2.287
			c-0.13,0.311-0.156,0.648-0.156,1.091v7.586h-2.286V24.433z"/>
		<path d="M49.333,26.693v3.611h3.273v1.741h-3.273v6.78c0,1.558,0.441,2.442,1.714,2.442c0.598,0,1.039-0.078,1.326-0.156
			l0.104,1.715c-0.442,0.183-1.144,0.312-2.026,0.312c-1.065,0-1.923-0.338-2.469-0.961c-0.649-0.676-0.883-1.794-0.883-3.273
			v-6.858h-1.948v-1.741h1.948v-3.014L49.333,26.693z"/>
		<path d="M57.93,26.693v3.611h3.274v1.741H57.93v6.78c0,1.558,0.442,2.442,1.715,2.442c0.598,0,1.039-0.078,1.325-0.156
			l0.104,1.715c-0.441,0.183-1.144,0.312-2.026,0.312c-1.065,0-1.922-0.338-2.468-0.961c-0.649-0.676-0.883-1.794-0.883-3.273
			v-6.858h-1.949v-1.741h1.949v-3.014L57.93,26.693z"/>
		<path d="M63.775,34.409c0-1.61-0.051-2.91-0.104-4.104h2.052l0.104,2.156h0.051c0.937-1.533,2.417-2.442,4.469-2.442
			c3.04,0,5.326,2.572,5.326,6.391c0,4.521-2.754,6.756-5.716,6.756c-1.662,0-3.117-0.729-3.87-1.976h-0.053v6.833h-2.26V34.409z
			 M66.035,37.76c0,0.34,0.053,0.65,0.104,0.937c0.415,1.585,1.792,2.676,3.428,2.676c2.418,0,3.82-1.975,3.82-4.858
			c0-2.52-1.324-4.676-3.741-4.676c-1.56,0-3.015,1.118-3.455,2.832c-0.078,0.286-0.156,0.624-0.156,0.936V37.76z"/>
		<path d="M78.009,32.383c0-0.96,0.651-1.636,1.561-1.636c0.908,0,1.506,0.676,1.531,1.636c0,0.91-0.597,1.611-1.558,1.611
			C78.633,33.994,78.009,33.293,78.009,32.383z M78.009,41.555c0-0.961,0.651-1.638,1.561-1.638c0.908,0,1.506,0.677,1.531,1.638
			c0,0.909-0.597,1.611-1.558,1.611C78.633,43.166,78.009,42.464,78.009,41.555z"/>
		<path d="M82.01,43.918l7.249-18.835h1.768l-7.275,18.835H82.01z"/>
		<path d="M90.92,43.918l7.247-18.835h1.768l-7.273,18.835H90.92z"/>
	</g>
	<g>
		<path fill="#231F20" d="M104.227,2.549c0.608,0,1.103,0.494,1.103,1.103v55.854c0,0.609-0.494,1.104-1.103,1.104H25.772
			c-0.607,0-1.102-0.494-1.102-1.104V3.651c0-0.608,0.494-1.103,1.102-1.103H104.227 M104.227,0.344H25.772
			c-1.826,0-3.307,1.481-3.307,3.308v55.854c0,1.827,1.48,3.308,3.307,3.308h78.454c1.826,0,3.308-1.48,3.308-3.308V3.651
			C107.534,1.825,106.053,0.344,104.227,0.344L104.227,0.344z"/>
	</g>
	<g>
		<circle fill="#231F20" cx="29.201" cy="6.027" r="1.286"/>
	</g>
	<g>
		<circle fill="#231F20" cx="33.128" cy="6.027" r="1.286"/>
	</g>
	<g>
		<circle fill="#231F20" cx="36.849" cy="6.027" r="1.286"/>
	</g>
	<g>
		<rect x="22.74" y="65.108" fill="#231F20" width="84.794" height="4.548"/>
	</g>
	<rect x="23.766" y="9.683" fill="#231F20" width="82.734" height="2.692"/>
</g>
</svg>
