<?xml version="1.0" encoding="utf-8"?>
<!-- Generator: Adobe Illustrator 16.0.2, SVG Export Plug-In . SVG Version: 6.00 Build 0)  -->
<!DOCTYPE svg PUBLIC "-//W3C//DTD SVG 1.1//EN" "http://www.w3.org/Graphics/SVG/1.1/DTD/svg11.dtd">
<svg version="1.1" id="Layer_1" xmlns="http://www.w3.org/2000/svg" xmlns:xlink="http://www.w3.org/1999/xlink" x="0px" y="0px"
	 width="130px" height="70px" viewBox="0 0 130 70" enable-background="new 0 0 130 70" xml:space="preserve">
<g>
	<path fill="#0669AC" d="M33.985,16.853c-6.292,9.041-5.515,20.802-0.701,30.409c0.108,0.234,0.232,0.457,0.35,0.683
		c0.067,0.147,0.145,0.294,0.227,0.438c0.036,0.08,0.092,0.168,0.139,0.244c0.078,0.158,0.16,0.302,0.242,0.451
		c0.155,0.261,0.31,0.525,0.464,0.784c0.087,0.145,0.17,0.289,0.268,0.433c0.165,0.279,0.355,0.554,0.526,0.832
		c0.077,0.119,0.149,0.234,0.232,0.351c0.247,0.376,0.495,0.747,0.768,1.114c0,0.01,0.01,0.021,0.02,0.024
		c0.041,0.062,0.088,0.121,0.129,0.177c0.231,0.318,0.463,0.628,0.707,0.934c0.082,0.113,0.174,0.228,0.257,0.338
		c0.221,0.269,0.438,0.536,0.654,0.802c0.083,0.096,0.166,0.196,0.253,0.294c0.289,0.348,0.593,0.693,0.902,1.035
		c0,0.004,0.01,0.01,0.016,0.019c0.01,0.013,0.02,0.027,0.041,0.038c0.299,0.329,0.603,0.649,0.912,0.971
		c0.098,0.097,0.195,0.192,0.304,0.297c0.237,0.239,0.474,0.48,0.727,0.717c0.103,0.1,0.206,0.194,0.304,0.289
		c0.33,0.31,0.66,0.62,1.005,0.916c0.005,0.005,0.011,0.007,0.016,0.011c0.057,0.051,0.119,0.101,0.17,0.148
		c0.303,0.259,0.608,0.518,0.917,0.772c0.124,0.104,0.248,0.202,0.371,0.301c0.258,0.206,0.516,0.399,0.773,0.597
		c0.134,0.1,0.268,0.204,0.407,0.311c0.279,0.208,0.567,0.411,0.85,0.612c0.104,0.075,0.207,0.149,0.315,0.219
		c0.025,0.023,0.056,0.044,0.082,0.064c0.283,0.187,0.551,0.366,0.83,0.55c0.124,0.078,0.242,0.156,0.361,0.236
		c0.433,0.276,0.866,0.54,1.294,0.799c0.124,0.065,0.247,0.134,0.366,0.203c0.32,0.186,0.645,0.369,0.974,0.544
		c0.181,0.101,0.361,0.189,0.547,0.281c0.221,0.121,0.454,0.245,0.69,0.366c0.057,0.021,0.113,0.043,0.165,0.072
		c0.097,0.044,0.191,0.093,0.283,0.139c0.362,0.178,0.732,0.345,1.114,0.515c0.073,0.035,0.148,0.064,0.227,0.104
		c0.427,0.186,0.854,0.363,1.295,0.535c0.102,0.04,0.205,0.087,0.312,0.122c0.398,0.155,0.81,0.308,1.217,0.453
		c0.052,0.021,0.098,0.038,0.15,0.055c0.453,0.155,0.901,0.302,1.36,0.444c0.107,0.029,0.217,0.069,0.331,0.097
		c0.469,0.143,0.922,0.309,1.401,0.397c30.425,5.545,39.265-18.284,39.265-18.284c-7.427,9.666-20.606,12.221-33.089,9.381
		c-0.463-0.105-0.922-0.254-1.392-0.393c-0.11-0.031-0.232-0.066-0.341-0.105c-0.454-0.136-0.903-0.284-1.34-0.433
		c-0.063-0.021-0.129-0.043-0.191-0.07c-0.396-0.137-0.788-0.286-1.18-0.438c-0.11-0.047-0.222-0.086-0.331-0.127
		c-0.433-0.17-0.861-0.353-1.278-0.536c-0.092-0.032-0.17-0.072-0.258-0.107c-0.365-0.168-0.716-0.332-1.071-0.503
		c-0.109-0.046-0.206-0.099-0.314-0.152c-0.279-0.132-0.558-0.277-0.83-0.422c-0.191-0.099-0.377-0.188-0.557-0.289
		c-0.335-0.18-0.67-0.371-1.005-0.557c-0.104-0.07-0.217-0.13-0.335-0.193c-0.433-0.258-0.871-0.522-1.299-0.797
		c-0.124-0.077-0.237-0.153-0.35-0.234c-0.314-0.196-0.623-0.407-0.928-0.612c-0.097-0.07-0.195-0.143-0.299-0.215
		c-0.294-0.205-0.583-0.413-0.875-0.629c-0.124-0.098-0.251-0.194-0.387-0.293c-0.263-0.204-0.526-0.404-0.788-0.616
		c-0.114-0.095-0.231-0.189-0.346-0.28c-0.34-0.273-0.66-0.548-0.984-0.831c-0.031-0.032-0.077-0.063-0.114-0.089
		c-0.345-0.311-0.69-0.625-1.031-0.941c-0.103-0.098-0.19-0.188-0.293-0.28c-0.247-0.243-0.495-0.48-0.737-0.726
		c-0.104-0.103-0.196-0.197-0.294-0.295c-0.31-0.313-0.614-0.635-0.912-0.965c-0.016-0.014-0.031-0.027-0.046-0.045
		c-0.314-0.347-0.619-0.696-0.923-1.053c-0.083-0.094-0.16-0.193-0.242-0.286c-0.221-0.272-0.443-0.549-0.67-0.822
		c-0.072-0.105-0.155-0.205-0.238-0.309c-0.263-0.339-0.515-0.676-0.767-1.023c-6.928-9.45-9.427-22.492-3.886-33.194"/>
	<path fill="#0669AC" d="M53.52,9.232c-4.563,6.546-4.309,15.31-0.758,22.237c0.587,1.16,1.258,2.287,2.01,3.356
		c0.68,0.978,1.433,2.138,2.344,2.924c0.321,0.361,0.666,0.712,1.022,1.064c0.087,0.087,0.176,0.174,0.267,0.265
		c0.34,0.326,0.686,0.649,1.042,0.963c0.01,0.014,0.031,0.026,0.041,0.041c0.004,0.002,0.01,0.006,0.01,0.006
		c0.396,0.352,0.799,0.684,1.216,1.009c0.098,0.069,0.186,0.146,0.283,0.217c0.413,0.322,0.836,0.63,1.264,0.934
		c0.015,0.006,0.026,0.017,0.047,0.025c0.184,0.133,0.379,0.257,0.582,0.385c0.086,0.057,0.179,0.125,0.267,0.178
		c0.314,0.206,0.624,0.394,0.944,0.583c0.046,0.023,0.092,0.049,0.138,0.073c0.269,0.161,0.553,0.32,0.836,0.467
		c0.097,0.059,0.195,0.105,0.294,0.158c0.195,0.098,0.391,0.201,0.583,0.302c0.024,0.015,0.062,0.027,0.092,0.041
		c0.402,0.199,0.809,0.382,1.211,0.565c0.098,0.038,0.181,0.071,0.273,0.11c0.33,0.141,0.665,0.282,0.995,0.407
		c0.149,0.05,0.289,0.107,0.428,0.157c0.305,0.108,0.613,0.213,0.917,0.313c0.149,0.05,0.283,0.092,0.418,0.135
		c0.433,0.138,0.871,0.313,1.33,0.383C95.1,50.426,100.53,32.338,100.53,32.338c-4.891,7.046-14.358,10.401-24.462,7.777
		c-0.453-0.116-0.896-0.246-1.329-0.387c-0.139-0.035-0.262-0.08-0.396-0.126c-0.314-0.1-0.629-0.206-0.934-0.319
		c-0.139-0.052-0.282-0.104-0.422-0.158c-0.336-0.131-0.67-0.259-0.996-0.404c-0.098-0.037-0.188-0.071-0.268-0.113
		c-0.417-0.182-0.829-0.374-1.231-0.566c-0.206-0.104-0.407-0.209-0.614-0.316c-0.123-0.063-0.242-0.122-0.35-0.179
		c-0.272-0.141-0.526-0.291-0.784-0.444c-0.06-0.031-0.122-0.064-0.184-0.099c-0.316-0.191-0.64-0.382-0.938-0.58
		c-0.104-0.06-0.192-0.127-0.289-0.188c-0.206-0.131-0.407-0.262-0.619-0.405c-0.428-0.296-0.845-0.608-1.263-0.924
		c-0.098-0.08-0.189-0.151-0.284-0.229c-4.431-3.49-7.938-8.262-9.596-13.667c-1.753-5.613-1.365-11.914,1.655-17.024"/>
	<path fill="#0669AC" d="M69.94,3.54c-2.69,3.948-2.947,8.852-1.092,13.208c1.969,4.629,5.993,8.26,10.685,9.979
		c0.19,0.075,0.381,0.137,0.577,0.204c0.088,0.025,0.17,0.054,0.263,0.082c0.272,0.085,0.547,0.188,0.829,0.243
		c12.973,2.505,16.488-6.657,17.433-8.004c-3.088,4.438-8.268,5.501-14.624,3.958c-0.498-0.121-1.046-0.301-1.529-0.477
		c-0.619-0.219-1.231-0.474-1.831-0.755c-1.117-0.543-2.2-1.198-3.201-1.956c-5.688-4.314-9.215-12.542-5.505-19.246"/>
</g>
</svg>
