<?xml version="1.0" encoding="utf-8"?>
<!-- Generator: Adobe Illustrator 16.0.2, SVG Export Plug-In . SVG Version: 6.00 Build 0)  -->
<!DOCTYPE svg PUBLIC "-//W3C//DTD SVG 1.1//EN" "http://www.w3.org/Graphics/SVG/1.1/DTD/svg11.dtd">
<svg version="1.1" id="Layer_1" xmlns="http://www.w3.org/2000/svg" xmlns:xlink="http://www.w3.org/1999/xlink" x="0px" y="0px"
	 width="130px" height="70px" viewBox="0 0 130 70" enable-background="new 0 0 130 70" xml:space="preserve">
<g>
	<path fill-rule="evenodd" clip-rule="evenodd" d="M55.391,7.841c-1.816,0.542-3.629,0.896-5.279,1.619
		c-2.538,1.11-3.729,3.232-3.752,6.007c-0.029,3.264,0.077,6.539-0.16,9.787c-0.312,4.267-2.271,7.622-6.329,9.672
		c2.489,1.209,4.398,2.997,5.28,5.527c0.655,1.878,1.01,3.911,1.165,5.901c0.194,2.503,0.118,5.034,0.03,7.547
		c-0.154,4.477,2.796,6.693,6.468,7.486c0.833,0.181,1.693,0.247,2.601,0.375c0,2.648,0,5.26,0,8.194
		c-2.215-0.222-4.408-0.324-6.557-0.687c-2.869-0.485-5.539-1.468-7.777-3.493c-2.279-2.063-3.461-4.669-3.681-7.595
		c-0.277-3.698-0.187-7.425-0.234-11.138c-0.049-3.919-2.04-6.613-5.728-7.61c-0.893-0.242-1.836-0.299-2.903-0.463
		c0-1.355,0-2.694,0-4.033c0-1.313,0-2.626,0-4.048c0.694-0.109,1.342-0.23,1.995-0.313c3.695-0.468,6.372-3.14,6.553-6.845
		c0.158-3.222,0.064-6.458,0.079-9.687c0.01-2.2,0.415-4.329,1.277-6.346c1.059-2.477,2.898-4.283,5.28-5.463
		c3.643-1.806,7.564-2.264,11.673-2.186C55.391,2.752,55.391,5.392,55.391,7.841z"/>
	<path fill-rule="evenodd" clip-rule="evenodd" d="M74.581,69.713c0-2.681,0-5.292,0-7.736c1.746-0.486,3.455-0.789,5.02-1.438
		c2.777-1.153,4.08-3.374,4.044-6.395c-0.028-2.252,0.015-4.508-0.011-6.76c-0.06-5.266,1.332-9.78,6.462-12.469
		c-2.879-1.439-4.815-3.622-5.667-6.605c-0.448-1.564-0.677-3.226-0.758-4.854c-0.124-2.473-0.116-4.96-0.014-7.436
		c0.184-4.511-2.821-6.843-6.62-7.576c-0.77-0.147-1.551-0.23-2.423-0.357c0-2.624,0-5.261,0-8.013
		c3.407-0.146,6.721,0.263,9.925,1.401c5.334,1.895,8.247,6.249,8.296,12.35c0.022,2.855,0.002,5.71,0.004,8.564
		c0.001,4.813,2.334,7.538,7.072,8.263c0.476,0.072,0.953,0.132,1.555,0.217c0,1.387,0,2.727,0,4.068c0,1.312,0,2.624,0,4.032
		c-0.709,0.108-1.361,0.224-2.019,0.305c-3.62,0.445-6.335,3.123-6.521,6.753c-0.168,3.258-0.069,6.531-0.088,9.798
		c-0.013,2.198-0.423,4.326-1.285,6.343c-1.025,2.401-2.823,4.122-5.085,5.359C83.559,69.12,78.05,70.126,74.581,69.713z"/>
</g>
</svg>
