<?xml version="1.0" encoding="utf-8"?>
<!-- Generator: Adobe Illustrator 16.0.2, SVG Export Plug-In . SVG Version: 6.00 Build 0)  -->
<!DOCTYPE svg PUBLIC "-//W3C//DTD SVG 1.1//EN" "http://www.w3.org/Graphics/SVG/1.1/DTD/svg11.dtd">
<svg version="1.1" id="Layer_1" xmlns="http://www.w3.org/2000/svg" xmlns:xlink="http://www.w3.org/1999/xlink" x="0px" y="0px"
	 width="130px" height="70px" viewBox="0 0 130 70" enable-background="new 0 0 130 70" xml:space="preserve">
<g>
	<path fill="#6A7E91" d="M38.467,63.533h-3.944c-0.139-6.657-0.523-12.917-1.152-18.78h-0.035l-6.004,18.78h-3.003l-5.969-18.78
		h-0.035c-0.442,5.631-0.721,11.891-0.837,18.78h-3.596c0.232-8.379,0.813-16.234,1.745-23.565h4.888l5.69,17.315h0.035
		l5.725-17.315h4.677C37.676,48.555,38.281,56.41,38.467,63.533"/>
	<path fill="#6A7E91" d="M55.572,46.146c-1.606,8.716-3.724,15.047-6.354,18.998c-2.049,3.044-4.293,4.566-6.737,4.566
		c-0.652,0-1.455-0.198-2.408-0.586v-2.103c0.466,0.069,1.012,0.106,1.64,0.106c1.141,0,2.059-0.315,2.758-0.944
		c0.838-0.769,1.256-1.628,1.256-2.584c0-0.652-0.327-1.988-0.978-4.013l-4.328-13.441h3.874l3.106,10.052
		c0.699,2.284,0.99,3.876,0.873,4.785c1.699-4.538,2.886-9.484,3.562-14.837H55.572z"/>
	<polygon fill="#FA8A3B" points="108.075,63.533 96.87,63.533 96.87,39.968 100.64,39.968 100.64,60.634 108.075,60.634 	"/>
	<path fill-rule="evenodd" clip-rule="evenodd" fill="#FA8A3B" d="M93.938,64.101l-4.332-2.137c0.385-0.314,0.753-0.658,1.084-1.051
		c1.839-2.163,2.758-5.362,2.758-9.6c0-7.797-3.059-11.695-9.181-11.695c-3.002,0-5.341,0.989-7.018,2.969
		c-1.84,2.164-2.757,5.351-2.757,9.563c0,4.144,0.813,7.182,2.442,9.112c1.489,1.745,3.735,2.619,6.738,2.619
		c1.12,0,2.151-0.139,3.085-0.414l5.641,3.28L93.938,64.101z M79.904,58.817c-0.954-1.534-1.432-4-1.432-7.398
		c0-5.935,1.805-8.903,5.41-8.903c1.885,0,3.27,0.709,4.155,2.129c0.954,1.536,1.431,3.979,1.431,7.33
		c0,5.982-1.804,8.976-5.41,8.976C82.174,60.95,80.788,60.241,79.904,58.817"/>
	<path fill="#FA8A3B" d="M72.85,57.001c0,1.998-0.734,3.639-2.198,4.922c-1.465,1.279-3.433,1.918-5.897,1.918
		c-2.304,0-4.539-0.735-6.702-2.2l1.012-2.022c1.862,0.93,3.547,1.396,5.06,1.396c1.419,0,2.53-0.316,3.334-0.939
		c0.802-0.63,1.282-1.506,1.282-2.617c0-1.399-0.977-2.595-2.766-3.599c-1.653-0.909-4.957-2.801-4.957-2.801
		c-1.79-1.306-2.687-2.707-2.687-5.016c0-1.908,0.669-3.451,2.005-4.626c1.339-1.177,3.067-1.763,5.185-1.763
		c2.187,0,4.176,0.582,5.968,1.747l-0.911,2.021c-1.532-0.649-3.044-0.975-4.534-0.975c-1.209,0-2.142,0.29-2.792,0.874
		c-0.653,0.578-1.057,1.324-1.057,2.233c0,1.394,0.997,2.604,2.837,3.629c1.674,0.906,5.059,2.838,5.059,2.838
		C71.933,53.323,72.85,54.713,72.85,57.001"/>
	<path fill-rule="evenodd" clip-rule="evenodd" fill="#6A7E91" d="M112.806,32.073c-2.279-0.057-4.042,0.171-5.523,0.798
		c-0.427,0.171-1.109,0.171-1.168,0.712c0.23,0.227,0.257,0.597,0.458,0.911c0.34,0.569,0.938,1.337,1.48,1.737
		c0.597,0.455,1.195,0.909,1.823,1.309c1.108,0.686,2.362,1.081,3.441,1.766c0.63,0.398,1.254,0.911,1.882,1.339
		c0.312,0.229,0.511,0.599,0.909,0.739v-0.086c-0.199-0.255-0.257-0.625-0.453-0.911c-0.285-0.284-0.57-0.541-0.856-0.825
		c-0.825-1.109-1.851-2.078-2.96-2.875c-0.912-0.627-2.905-1.481-3.273-2.533c0,0-0.029-0.029-0.059-0.058
		c0.627-0.057,1.369-0.286,1.966-0.458c0.966-0.256,1.849-0.198,2.845-0.454c0.456-0.115,0.912-0.257,1.37-0.398v-0.258
		c-0.515-0.512-0.885-1.195-1.424-1.68c-1.452-1.252-3.049-2.475-4.698-3.502c-0.885-0.569-2.023-0.937-2.964-1.423
		c-0.34-0.171-0.909-0.256-1.109-0.542c-0.513-0.625-0.799-1.451-1.167-2.192c-0.826-1.563-1.625-3.3-2.335-4.954
		c-0.513-1.11-0.825-2.219-1.452-3.245c-2.933-4.842-6.121-7.772-11.019-10.648c-1.054-0.6-2.306-0.855-3.645-1.168
		c-0.712-0.03-1.423-0.085-2.134-0.113c-0.457-0.2-0.914-0.742-1.311-0.998c-1.623-1.025-5.808-3.246-7.004-0.313
		c-0.77,1.852,1.139,3.673,1.794,4.613c0.483,0.654,1.11,1.395,1.449,2.135c0.201,0.484,0.258,0.997,0.459,1.509
		c0.454,1.252,0.881,2.648,1.479,3.816c0.313,0.598,0.654,1.225,1.052,1.763c0.23,0.315,0.628,0.456,0.714,0.97
		c-0.398,0.568-0.429,1.423-0.656,2.135c-1.025,3.217-0.626,7.203,0.827,9.566c0.453,0.711,1.535,2.278,2.989,1.678
		c1.281-0.511,0.997-2.134,1.366-3.558c0.085-0.344,0.027-0.569,0.197-0.797v0.059c0.399,0.796,0.799,1.563,1.169,2.362
		c0.884,1.395,2.42,2.846,3.703,3.813c0.681,0.516,1.223,1.396,2.076,1.711v-0.087H92.99c-0.172-0.255-0.427-0.371-0.656-0.568
		c-0.513-0.513-1.079-1.14-1.479-1.708c-1.195-1.594-2.251-3.36-3.188-5.183c-0.457-0.884-0.854-1.852-1.225-2.735
		c-0.17-0.339-0.17-0.854-0.456-1.023c-0.429,0.626-1.053,1.167-1.367,1.934c-0.54,1.225-0.596,2.734-0.797,4.3
		c-0.114,0.029-0.057,0-0.114,0.057c-0.909-0.228-1.223-1.167-1.565-1.962c-0.854-2.024-0.998-5.269-0.257-7.604
		c0.198-0.596,1.056-2.475,0.711-3.045c-0.17-0.543-0.74-0.854-1.051-1.283c-0.371-0.541-0.771-1.222-1.025-1.822
		c-0.684-1.594-1.027-3.36-1.765-4.954c-0.342-0.742-0.941-1.511-1.424-2.193c-0.542-0.769-1.139-1.309-1.567-2.22
		c-0.141-0.313-0.341-0.826-0.113-1.167c0.057-0.229,0.172-0.314,0.399-0.372c0.368-0.313,1.423,0.085,1.792,0.256
		c1.053,0.426,1.937,0.827,2.818,1.424c0.4,0.286,0.827,0.826,1.338,0.969h0.598c0.912,0.198,1.938,0.055,2.792,0.312
		c1.509,0.484,2.876,1.196,4.101,1.965c3.728,2.364,6.804,5.724,8.88,9.738c0.344,0.654,0.487,1.252,0.799,1.934
		c0.599,1.398,1.34,2.821,1.938,4.186c0.596,1.339,1.167,2.704,2.022,3.817c0.426,0.597,2.135,0.91,2.904,1.224
		c0.566,0.255,1.451,0.484,1.964,0.796c0.969,0.597,1.935,1.28,2.847,1.937C111.296,30.792,112.721,31.503,112.806,32.073"/>
	<path fill-rule="evenodd" clip-rule="evenodd" fill="#6A7E91" d="M83.765,7.331c-0.482,0-0.824,0.058-1.169,0.143v0.058h0.058
		c0.23,0.455,0.629,0.77,0.912,1.168c0.228,0.456,0.427,0.909,0.654,1.365c0.029-0.027,0.057-0.057,0.057-0.057
		c0.4-0.284,0.599-0.74,0.599-1.424c-0.171-0.2-0.198-0.397-0.341-0.598C84.362,7.701,83.992,7.559,83.765,7.331"/>
	<path fill="#FA8A3B" d="M115.52,63.53h0.589v-2.889h-0.885l-0.721,1.97l-0.785-1.97h-0.854v2.889h0.557v-2.198h0.032l0.821,2.198
		h0.426l0.819-2.198V63.53z M110.766,63.53h0.624v-2.398h0.819v-0.49h-2.292v0.49h0.849V63.53z"/>
</g>
</svg>
