<?xml version="1.0" encoding="utf-8"?>
<!-- Generator: Adobe Illustrator 16.0.2, SVG Export Plug-In . SVG Version: 6.00 Build 0)  -->
<!DOCTYPE svg PUBLIC "-//W3C//DTD SVG 1.1//EN" "http://www.w3.org/Graphics/SVG/1.1/DTD/svg11.dtd">
<svg version="1.1" id="Layer_1" xmlns="http://www.w3.org/2000/svg" xmlns:xlink="http://www.w3.org/1999/xlink" x="0px" y="0px"
	 width="130px" height="70px" viewBox="0 0 130 70" enable-background="new 0 0 130 70" xml:space="preserve">
<g>
	<path fill-rule="evenodd" clip-rule="evenodd" fill="#5F82BA" d="M64.982,67.899c-3.792,0.052-7.579-0.106-11.355-0.451
		c-8.552-0.777-16.941-2.37-25.079-5.163c-4.829-1.657-9.477-3.713-13.829-6.399c-3.182-1.965-6.13-4.223-8.67-6.983
		c-2.021-2.199-3.703-4.621-4.787-7.419c-1.962-5.063-1.604-10.005,0.86-14.814c1.318-2.571,3.104-4.793,5.167-6.801
		c3.056-2.974,6.55-5.338,10.288-7.357c5.038-2.721,10.362-4.723,15.862-6.277c4.269-1.205,8.602-2.112,12.988-2.769
		c3.498-0.524,7.012-0.89,10.542-1.115c4.311-0.274,8.624-0.333,12.938-0.166c3.584,0.14,7.158,0.427,10.72,0.874
		c6.103,0.766,12.111,1.981,17.996,3.785c5.204,1.596,10.231,3.621,14.97,6.32c3.292,1.874,6.373,4.038,9.094,6.689
		c2.385,2.323,4.392,4.92,5.744,7.985c1.116,2.532,1.665,5.179,1.538,7.948c-0.143,3.089-1.092,5.937-2.647,8.594
		c-1.51,2.58-3.458,4.798-5.675,6.788c-3.117,2.799-6.615,5.038-10.329,6.948c-4.938,2.541-10.125,4.429-15.473,5.894
		c-4.476,1.225-9.014,2.129-13.61,2.765c-4.63,0.642-9.279,1.027-13.953,1.121C67.183,67.917,66.082,67.899,64.982,67.899z
		 M78.572,54.923c2.645,0,5.18,0,7.761,0c0.617-3.155,1.23-6.298,1.844-9.444c0.174-0.009,0.291-0.021,0.408-0.022
		c2.048-0.001,4.096,0.026,6.143-0.01c1.352-0.023,2.705-0.093,4.052-0.221c3.968-0.374,7.216-2.151,9.8-5.161
		c2.957-3.444,4.098-7.491,3.83-11.958c-0.124-2.026-0.859-3.852-2.244-5.38c-1.19-1.314-2.672-2.161-4.348-2.692
		c-1.744-0.553-3.538-0.732-5.357-0.732c-4.807,0-9.612,0-14.419,0c-0.166,0-0.332,0-0.543,0
		C83.188,31.18,80.887,43.021,78.572,54.923z M27.559,45.481c0.181-0.01,0.313-0.024,0.447-0.024
		c2.047-0.002,4.096,0.025,6.143-0.011c1.334-0.023,2.672-0.092,4-0.22c3.557-0.339,6.594-1.792,9.081-4.371
		c3.603-3.738,5.039-8.234,4.47-13.338c-0.363-3.261-2.194-5.577-5.165-6.966c-1.759-0.823-3.64-1.196-5.563-1.212
		c-5.246-0.045-10.493-0.029-15.739-0.035c-0.113,0-0.225,0.028-0.361,0.046c-2.28,11.72-4.557,23.419-6.831,35.118
		c-0.022,0.116-0.028,0.233-0.038,0.351c-0.001,0.016,0.01,0.033,0.019,0.047c0.008,0.014,0.021,0.024,0.037,0.043
		c2.541,0,5.087,0,7.66,0C26.335,51.75,26.947,48.619,27.559,45.481z M57.204,9.837c-2.307,11.869-4.61,23.71-6.917,35.583
		c2.598,0,5.142,0,7.703,0c1.325-6.81,2.644-13.59,3.957-20.34c0.103-0.024,0.135-0.039,0.168-0.039
		c2.166,0,4.332-0.011,6.497,0.011c0.794,0.007,1.584,0.103,2.35,0.356c0.983,0.327,1.515,1.014,1.555,2.027
		c0.026,0.671,0.006,1.36-0.118,2.019c-0.801,4.235-1.637,8.463-2.46,12.694c-0.208,1.077-0.415,2.156-0.63,3.273
		c2.616,0,5.196,0,7.814,0c0.094-0.467,0.189-0.928,0.28-1.391c0.937-4.813,1.87-9.626,2.809-14.438
		c0.285-1.464,0.528-2.927,0.358-4.431c-0.24-2.117-1.258-3.68-3.202-4.602c-0.335-0.159-0.682-0.299-1.033-0.419
		c-1.633-0.556-3.327-0.779-5.039-0.807c-2.521-0.041-5.042-0.025-7.563-0.033c-0.199,0-0.399,0-0.66,0
		c0.617-3.184,1.223-6.307,1.834-9.464C62.312,9.837,59.795,9.837,57.204,9.837z"/>
	<path fill-rule="evenodd" clip-rule="evenodd" fill="#5F82BA" d="M89.272,39.817c0.968-4.978,1.926-9.902,2.89-14.866
		c0.156-0.011,0.303-0.031,0.449-0.031c1.743-0.001,3.485-0.008,5.228,0.003c1.101,0.007,2.195,0.103,3.266,0.39
		c0.229,0.061,0.454,0.134,0.676,0.213c1.579,0.558,2.415,1.709,2.527,3.345c0.171,2.503-0.354,4.88-1.537,7.094
		c-1.025,1.917-2.702,2.969-4.775,3.46c-1.023,0.243-2.064,0.381-3.113,0.399c-1.759,0.027-3.519,0.012-5.279,0.014
		C89.521,39.838,89.437,39.829,89.272,39.817z"/>
	<path fill-rule="evenodd" clip-rule="evenodd" fill="#5F82BA" d="M28.659,39.799c0.962-4.947,1.918-9.873,2.882-14.834
		c0.134-0.015,0.263-0.044,0.391-0.044c1.81-0.001,3.621-0.01,5.43,0.006c1.068,0.009,2.128,0.114,3.164,0.396
		c0.229,0.062,0.453,0.136,0.675,0.216c1.53,0.557,2.36,1.677,2.481,3.272c0.195,2.577-0.351,5.015-1.602,7.277
		c-1.035,1.87-2.704,2.901-4.746,3.332c-0.989,0.209-2.004,0.354-3.012,0.392c-1.774,0.065-3.552,0.024-5.329,0.025
		C28.896,39.837,28.797,39.814,28.659,39.799z"/>
</g>
</svg>
