<?xml version="1.0" encoding="utf-8"?>
<!-- Generator: Adobe Illustrator 16.0.2, SVG Export Plug-In . SVG Version: 6.00 Build 0)  -->
<!DOCTYPE svg PUBLIC "-//W3C//DTD SVG 1.1//EN" "http://www.w3.org/Graphics/SVG/1.1/DTD/svg11.dtd">
<svg version="1.1" id="Layer_1" xmlns="http://www.w3.org/2000/svg" xmlns:xlink="http://www.w3.org/1999/xlink" x="0px" y="0px"
	 width="130px" height="70px" viewBox="0 0 130 70" enable-background="new 0 0 130 70" xml:space="preserve">
<g>
	<path fill-rule="evenodd" clip-rule="evenodd" fill="#A91401" d="M34.488,36.217c0.428-1.342,0.941-4.085,2.133-6.49
		C42.416,18.031,51.383,9.524,63.354,4.356c2.312-0.997,5.062-1.314,7.612-1.328c3.189-0.017,5.324,2.203,5.605,5.423
		c0.145,1.676,0.126,3.538-0.45,5.079c-5.675,15.169-16.375,25.328-31.424,31.038c-0.586,0.222-1.241,0.279-1.871,0.365
		C37.705,45.637,34.411,42.733,34.488,36.217z"/>
	<path fill-rule="evenodd" clip-rule="evenodd" fill="#A91401" d="M73.879,24.978c8.294-0.582,16.471-1.155,24.647-1.728
		c0.167-0.195,0.333-0.391,0.501-0.586c-0.485-0.248-1.028-0.42-1.444-0.752C90.107,15.952,82.636,9.989,75.205,3.975
		c-0.74-0.599-1.208-1.533-2.189-2.818c2.909,0,5.23-0.004,7.553,0.001c3.187,0.007,6.422-0.333,9.548,0.105
		c6.685,0.935,10.515,5.425,10.503,12.226c-0.01,4.45-0.481,8.902-0.812,13.348c-0.709,9.596-1.452,19.188-2.194,28.783
		c-0.26,3.364-0.551,6.727-0.855,10.421c-3.452-3.075-6.755-6.018-10.055-8.962c-0.236-0.212-0.42-0.501-0.685-0.664
		c-4.696-2.902-6.473-7.406-7.491-12.604c-1.114-5.678-2.811-11.243-4.244-16.86C74.129,26.348,74.03,25.73,73.879,24.978z"/>
	<path fill-rule="evenodd" clip-rule="evenodd" fill="#A91401" d="M53.95,43.35c8.896,2.853,17.44,5.592,25.985,8.331
		c0.104,0.194,0.208,0.389,0.313,0.582c-4.942,3.836-9.886,7.673-14.881,11.55c9.6,0.731,19.353,1.477,29.105,2.221
		c-0.003,0.125-0.004,0.251-0.006,0.376c-2.177,0.153-4.354,0.313-6.53,0.458c-13.42,0.907-26.839,1.821-40.26,2.698
		c-1.458,0.095-2.948,0.112-4.391-0.076C35.848,68.515,32,64.368,31.856,56.653c-0.089-4.767,0.414-9.545,0.713-14.313
		c0.021-0.345,0.541-0.91,0.845-0.921c0.354-0.013,0.905,0.394,1.063,0.754c1.786,4.074,3.517,8.174,5.253,12.27
		c0.62,1.466,1.205,2.944,1.819,4.411c1.14,2.718,1.125,2.46,4.137,2.238c2.647-0.193,3.64-1.427,4.243-3.814
		C51.096,52.664,52.553,48.125,53.95,43.35z"/>
</g>
</svg>
