<?xml version="1.0" encoding="utf-8"?>
<!-- Generator: Adobe Illustrator 16.0.2, SVG Export Plug-In . SVG Version: 6.00 Build 0)  -->
<!DOCTYPE svg PUBLIC "-//W3C//DTD SVG 1.1//EN" "http://www.w3.org/Graphics/SVG/1.1/DTD/svg11.dtd">
<svg version="1.1" id="Layer_1" xmlns="http://www.w3.org/2000/svg" xmlns:xlink="http://www.w3.org/1999/xlink" x="0px" y="0px"
	 width="115px" height="97.965px" viewBox="0 0 115 97.965" enable-background="new 0 0 115 97.965" xml:space="preserve">
<g>
	<path fill-rule="evenodd" clip-rule="evenodd" d="M20.349,37.612c6.891,9.311,13.67,18.461,20.425,27.627
		c0.346,0.469,0.698,1.084,0.702,1.633c0.046,7.17,0.03,14.341,0.03,21.461c-16.929,2.324-26.396-5.879-26.26-22.418
		c0.04-4.811-0.083-9.625,0.03-14.435C15.396,46.472,16.337,41.697,20.349,37.612z"/>
	<path fill-rule="evenodd" clip-rule="evenodd" d="M55.264,89.41c0-4.465,0-7.707,0-10.502c7.892,0,15.527,0.227,23.14-0.078
		c5.367-0.216,7.042-2.28,7.122-7.279c0.074-4.614-1.57-6.528-6.315-7.023c-3.438-0.357-6.896-0.598-10.35-0.721
		c-3.407-0.121-6.821-0.027-10.505-0.027c3.193-8.009,5.184-9.427,12.705-9.018c5.553,0.302,11.138,0.564,16.625,1.395
		c10.604,1.604,15.699,11.217,11.415,21.131c-2.505,5.791-6.578,9.582-13.228,10.01C75.854,87.945,65.839,88.674,55.264,89.41z"/>
	<path fill-rule="evenodd" clip-rule="evenodd" fill="#9FD13E" d="M18.841,29.123c16.515-5.49,33.82-5.272,51.373-6.415
		C67.39,15.139,64.64,7.766,61.89,0.394C62.153,0.263,62.418,0.131,62.683,0c3.373,6.01,13.534,22.238,13.534,22.238l8.356,0.645
		l1.982-2.627c0,0,4.186-6.532,7.153-9.387c-1.571,4.044-3.141,8.089-4.854,12.501c4.522,0.51,8.654,0.878,12.754,1.457
		c9.753,1.375,13.163,4.715,12.539,14.49c-0.493,7.715-1.8,15.527-4.062,22.961c-1.324,4.355-5.742,12.778-5.742,12.778
		c0.154-2.729,0.523-5.468,0.425-8.188c-0.311-8.538-0.49-17.102-1.315-25.597c-0.618-6.364-4.539-9.969-11.046-11.268
		c-23.771-4.741-47.5-4.309-71.256-0.078c-0.712,0.126-1.432,0.205-2.149,0.305C18.949,29.861,18.896,29.493,18.841,29.123z"/>
	<path fill-rule="evenodd" clip-rule="evenodd" fill="#9FD13E" d="M11.503,75.49c0.812,10.101,3.57,12.554,13.583,14.436
		c23.329,4.385,75.965-0.194,75.965-0.194l0,0l-4.492,0.952c0,0-9.901,2.447-14.925,3.16c-22.881,3.243-45.809,4.174-68.762,0.659
		C4.048,93.15,0.154,89.393,0.863,80.3c0.646-8.288,2.573-16.59,4.981-24.612C6.993,51.86,9.97,43.884,9.97,43.884"/>
	<path fill-rule="evenodd" clip-rule="evenodd" d="M31.222,31.262c12.018,0,23.011,0,34.804,0
		c-5.957,8.369-11.554,16.23-17.431,24.488C42.947,47.788,37.391,39.958,31.222,31.262z"/>
	<path fill-rule="evenodd" clip-rule="evenodd" d="M97.841,48.046c-4.718,0-9.166,0-13.959,0c0.01-5.379-2.911-7.927-8.131-7.998
		c4.862-8.427,6.188-9.191,12.354-7.336C95.844,35.042,98.48,39.04,97.841,48.046z"/>
</g>
</svg>
