<?xml version="1.0" encoding="utf-8"?>
<!-- Generator: Adobe Illustrator 16.0.2, SVG Export Plug-In . SVG Version: 6.00 Build 0)  -->
<!DOCTYPE svg PUBLIC "-//W3C//DTD SVG 1.1//EN" "http://www.w3.org/Graphics/SVG/1.1/DTD/svg11.dtd">
<svg version="1.1" id="Layer_1" xmlns="http://www.w3.org/2000/svg" xmlns:xlink="http://www.w3.org/1999/xlink" x="0px" y="0px"
	 width="115px" height="97.965px" viewBox="0 0 115 97.965" enable-background="new 0 0 115 97.965" xml:space="preserve">
<path fill="#FCB032" d="M57.5,0.794c-26.614,0-48.189,21.574-48.189,48.189c0,26.613,21.575,48.188,48.189,48.188
	s48.189-21.574,48.189-48.188C105.689,22.368,84.114,0.794,57.5,0.794z M75.457,26.34c4.274,0,7.74,3.465,7.74,7.74
	s-3.466,7.739-7.74,7.739c-4.273,0-7.738-3.465-7.738-7.739S71.184,26.34,75.457,26.34z M39.541,26.34
	c4.274,0,7.739,3.465,7.739,7.74s-3.465,7.739-7.739,7.739c-4.273,0-7.739-3.465-7.739-7.739S35.268,26.34,39.541,26.34z
	 M57.5,84.647C25.188,84.73,23.787,53.841,23.787,53.841s0.564-5.936,3.256-1.854c0,0,5.11,24.145,30.457,24.846
	c25.346,0.702,30.557-25.547,30.557-25.547s2.404-3.356,3.307,2.755C91.363,54.041,89.813,84.565,57.5,84.647z"/>
</svg>
